<svg xmlns="http://www.w3.org/2000/svg" xmlns:xlink="http://www.w3.org/1999/xlink" width="500" zoomAndPan="magnify" viewBox="0 0 375 374.999991" height="500" preserveAspectRatio="xMidYMid meet" version="1.0"><defs><clipPath id="59a80abd15"><path d="M 159.421875 37.5 L 215.578125 37.5 L 215.578125 337.5 L 159.421875 337.5 Z M 159.421875 37.5 " clip-rule="nonzero"/></clipPath><clipPath id="3e0a845bad"><path d="M 37.5 159.421875 L 337.5 159.421875 L 337.5 215.578125 L 37.5 215.578125 Z M 37.5 159.421875 " clip-rule="nonzero"/></clipPath><clipPath id="b9bf1a5170"><path d="M 37 37 L 338 37 L 338 338 L 37 338 Z M 37 37 " clip-rule="nonzero"/></clipPath><clipPath id="9ea76a2ce6"><path d="M 321.566406 37.503906 L 337.5 53.4375 L 53.429688 337.503906 L 37.5 321.570312 Z M 321.566406 37.503906 " clip-rule="nonzero"/></clipPath><clipPath id="eddba5550b"><path d="M 0 0 L 226 0 L 226 226 L 0 226 Z M 0 0 " clip-rule="nonzero"/></clipPath><clipPath id="595dcf7b23"><path d="M 197.699219 0 L 225.222656 27.523438 L 27.519531 225.226562 L -0.00390625 197.703125 Z M 197.699219 0 " clip-rule="nonzero"/></clipPath><clipPath id="fc24706a1b"><path d="M 149 149 L 375 149 L 375 375 L 149 375 Z M 149 149 " clip-rule="nonzero"/></clipPath><clipPath id="5a5d347bb8"><path d="M 347.472656 149.777344 L 374.996094 177.296875 L 177.292969 375 L 149.773438 347.476562 Z M 347.472656 149.777344 " clip-rule="nonzero"/></clipPath></defs><g clip-path="url(#59a80abd15)"><path fill="#5e17eb" d="M 159.421875 37.5 L 215.578125 37.5 L 215.578125 337.585938 L 159.421875 337.585938 Z M 159.421875 37.5 " fill-opacity="1" fill-rule="nonzero"/></g><g clip-path="url(#3e0a845bad)"><path fill="#5e17eb" d="M 337.5 159.421875 L 337.5 215.578125 L 37.414062 215.578125 L 37.414062 159.421875 Z M 337.5 159.421875 " fill-opacity="1" fill-rule="nonzero"/></g><g clip-path="url(#b9bf1a5170)"><g clip-path="url(#9ea76a2ce6)"><path fill="#ffffff" d="M 321.566406 37.503906 L 337.5 53.4375 L 53.445312 337.488281 L 37.511719 321.554688 Z M 321.566406 37.503906 " fill-opacity="1" fill-rule="nonzero"/></g></g><g clip-path="url(#eddba5550b)"><g clip-path="url(#595dcf7b23)"><path fill="#ffffff" d="M 197.699219 0 L 225.222656 27.523438 L 27.507812 225.234375 L -0.0117188 197.714844 Z M 197.699219 0 " fill-opacity="1" fill-rule="nonzero"/></g></g><g clip-path="url(#fc24706a1b)"><g clip-path="url(#5a5d347bb8)"><path fill="#ffffff" d="M 347.472656 149.777344 L 374.996094 177.296875 L 177.285156 375.011719 L 149.761719 347.488281 Z M 347.472656 149.777344 " fill-opacity="1" fill-rule="nonzero"/></g></g></svg>